<?xml version="1.0" encoding="utf-8"?>
<!-- Generator: Adobe Illustrator 24.1.3, SVG Export Plug-In . SVG Version: 6.00 Build 0)  -->
<svg version="1.1" id="guideshop_1_" xmlns="http://www.w3.org/2000/svg" xmlns:xlink="http://www.w3.org/1999/xlink" x="0px"
	 y="0px" viewBox="0 0 442.5 89.5" style="enable-background:new 0 0 442.5 89.5;" xml:space="preserve">
<style type="text/css">
	.st0{fill-rule:evenodd;clip-rule:evenodd;}
</style>
<g id="guideshop">
	<g>
		<path class="st0" d="M111.98,69.7h10.9V23.53h-10.9V69.7z M117.39,0.11c-1.96,0-3.64,0.7-5.02,2.09c-1.39,1.39-2.09,3.1-2.09,5.12
			c0,2.02,0.69,3.71,2.09,5.07c1.39,1.36,3.06,2.04,5.02,2.04c2.02,0,3.73-0.68,5.12-2.04c1.39-1.36,2.09-3.05,2.09-5.07
			c0-2.02-0.7-3.73-2.09-5.12C121.12,0.81,119.41,0.11,117.39,0.11z M98.96,61.26V23.53h-11v27.3c0,3.03-0.81,5.52-2.42,7.44
			c-1.61,1.93-4.03,2.89-7.25,2.89c-1.64,0-3.05-0.28-4.22-0.85c-1.17-0.57-2.13-1.33-2.89-2.28c-0.76-0.95-1.31-2.05-1.66-3.32
			C69.17,53.45,69,52.1,69,50.64V23.53H58v29.11c0,2.59,0.39,4.99,1.19,7.21c0.79,2.21,1.93,4.16,3.41,5.83
			c1.48,1.68,3.3,2.99,5.45,3.93c2.15,0.95,4.61,1.42,7.39,1.42c2.72,0,5.29-0.55,7.73-1.66c2.43-1.11,4.22-2.7,5.36-4.79
			c0,0.95,0.03,1.91,0.09,2.89c0.06,0.98,0.16,1.72,0.28,2.23h10.52c-0.13-0.88-0.24-2.04-0.33-3.46
			C99.01,64.81,98.96,63.16,98.96,61.26z M35.15,29.4c-1.01-1.9-2.64-3.49-4.88-4.79c-2.24-1.29-5.17-1.94-8.77-1.94
			c-3.16,0-6.05,0.6-8.67,1.8c-2.62,1.2-4.87,2.81-6.73,4.84c-1.86,2.02-3.32,4.39-4.36,7.11c-1.04,2.72-1.56,5.63-1.56,8.72
			c0,3.22,0.54,6.21,1.61,8.96c1.07,2.75,2.56,5.12,4.46,7.11c1.9,1.99,4.14,3.56,6.73,4.69c2.59,1.14,5.44,1.71,8.53,1.71
			c3.41,0,6.24-0.66,8.49-1.99c2.24-1.33,3.87-2.91,4.88-4.74v4.84c0,9.23-4.36,13.84-13.08,13.84c-3.22,0-5.86-0.95-7.92-2.84
			c-2.05-1.9-3.27-4.27-3.65-7.11L0.08,72.26c0.32,2.34,1.06,4.53,2.23,6.59c1.17,2.05,2.72,3.84,4.65,5.36
			c1.93,1.52,4.17,2.72,6.73,3.6c2.56,0.88,5.36,1.33,8.39,1.33c4.36,0,8.04-0.66,11.04-1.99c3-1.33,5.43-3.1,7.3-5.31
			c1.86-2.21,3.22-4.74,4.08-7.58c0.85-2.84,1.28-5.81,1.28-8.91V23.53H35.15V29.4z M31.88,54.67c-2.18,2.37-5.04,3.56-8.58,3.56
			c-3.6,0-6.51-1.17-8.72-3.51c-2.21-2.34-3.32-5.53-3.32-9.58c0-3.98,1.12-7.14,3.37-9.48c2.24-2.34,5.13-3.51,8.67-3.51
			c1.71,0,3.29,0.3,4.74,0.9c1.45,0.6,2.7,1.47,3.74,2.61c1.04,1.14,1.86,2.51,2.46,4.12c0.6,1.61,0.9,3.4,0.9,5.36
			C35.15,49.12,34.06,52.3,31.88,54.67z M324.33,27.56c-1.39-1.67-3.14-2.99-5.26-3.93c-2.12-0.95-4.6-1.42-7.44-1.42
			c-2.4,0-4.8,0.46-7.21,1.37c-2.4,0.92-4.39,2.39-5.97,4.41V1.06h-11V69.7h11V42.58c0.13-2.97,1-5.45,2.61-7.44
			c1.61-1.99,3.93-2.99,6.97-2.99c3.48,0,5.93,1,7.35,2.99c1.42,1.99,2.13,4.41,2.13,7.25v27.3h11V40.5c0-2.53-0.35-4.9-1.04-7.11
			C326.77,31.17,325.72,29.23,324.33,27.56z M263.9,42.3l-7.02-1.42c-1.45-0.32-2.59-0.88-3.41-1.71c-0.82-0.82-1.23-1.86-1.23-3.13
			c0-1.45,0.62-2.7,1.85-3.74s2.83-1.56,4.79-1.56c1.52,0,2.8,0.24,3.84,0.71c1.04,0.47,1.9,1.06,2.56,1.75
			c0.66,0.7,1.15,1.45,1.47,2.28c0.32,0.82,0.54,1.55,0.66,2.18L276.7,35c-0.19-1.14-0.62-2.45-1.28-3.93
			c-0.66-1.48-1.69-2.89-3.08-4.22c-1.39-1.33-3.18-2.45-5.36-3.37c-2.18-0.92-4.88-1.37-8.11-1.37c-2.4,0-4.63,0.4-6.68,1.19
			c-2.05,0.79-3.84,1.86-5.36,3.22c-1.52,1.36-2.72,2.94-3.6,4.74c-0.89,1.8-1.33,3.71-1.33,5.74c0,3.22,1.04,6.05,3.13,8.49
			c2.09,2.43,5.18,4.09,9.29,4.98l6.83,1.52c1.83,0.38,3.19,1.01,4.08,1.9c0.88,0.89,1.33,1.96,1.33,3.22c0,1.45-0.59,2.7-1.75,3.74
			c-1.17,1.04-2.89,1.56-5.17,1.56c-2.97,0-5.23-0.79-6.78-2.37c-1.55-1.58-2.42-3.41-2.61-5.5l-9.58,2.65
			c0.13,1.33,0.57,2.8,1.33,4.41c0.76,1.61,1.9,3.13,3.41,4.55c1.52,1.42,3.44,2.61,5.78,3.56c2.34,0.95,5.18,1.42,8.53,1.42
			c2.91,0,5.47-0.44,7.68-1.33c2.21-0.88,4.03-2.04,5.45-3.46c1.42-1.42,2.5-3,3.22-4.74c0.73-1.74,1.09-3.49,1.09-5.26
			c0-3.41-1.12-6.37-3.37-8.86C271.56,44.97,268.26,43.25,263.9,42.3z M228.18,28.65c-1.93-2.09-4.3-3.7-7.11-4.84
			c-2.81-1.14-5.99-1.71-9.53-1.71c-2.91,0-5.72,0.59-8.44,1.75c-2.72,1.17-5.12,2.81-7.21,4.93c-2.09,2.12-3.74,4.66-4.98,7.63
			c-1.23,2.97-1.85,6.29-1.85,9.95c0,3.92,0.65,7.41,1.94,10.48c1.29,3.07,3.02,5.66,5.17,7.77c2.15,2.12,4.65,3.73,7.49,4.84
			c2.84,1.11,5.85,1.66,9.01,1.66c2.78,0,5.31-0.38,7.58-1.14c2.28-0.76,4.3-1.8,6.07-3.13c1.77-1.33,3.25-2.88,4.46-4.65
			c1.2-1.77,2.12-3.66,2.75-5.69l-9.29-2.94c-0.76,2.28-2.04,4.19-3.84,5.74c-1.8,1.55-4.38,2.32-7.73,2.32
			c-1.71,0-3.3-0.3-4.79-0.9c-1.49-0.6-2.8-1.44-3.93-2.51c-1.14-1.07-2.05-2.34-2.75-3.79c-0.7-1.45-1.08-3.06-1.14-4.84h33.75
			c0.06-0.13,0.13-0.52,0.19-1.19c0.06-0.66,0.09-1.44,0.09-2.32c0-3.66-0.51-6.97-1.52-9.91C231.57,33.24,230.1,30.73,228.18,28.65
			z M200.35,41.54c0.06-1.2,0.38-2.42,0.95-3.65s1.33-2.34,2.28-3.32c0.95-0.98,2.1-1.77,3.46-2.37c1.36-0.6,2.89-0.9,4.6-0.9
			c1.9,0,3.54,0.28,4.93,0.85c1.39,0.57,2.56,1.33,3.51,2.28c0.95,0.95,1.66,2.04,2.13,3.27c0.47,1.23,0.74,2.51,0.81,3.84H200.35z
			 M378.97,29.07c-2.15-2.18-4.68-3.89-7.58-5.12c-2.91-1.23-6.1-1.85-9.58-1.85c-3.41,0-6.59,0.62-9.53,1.85
			c-2.94,1.23-5.47,2.94-7.58,5.12c-2.12,2.18-3.78,4.76-4.98,7.73c-1.2,2.97-1.8,6.23-1.8,9.77c0,3.54,0.6,6.81,1.8,9.81
			c1.2,3,2.86,5.59,4.98,7.77c2.12,2.18,4.65,3.89,7.58,5.12c2.94,1.23,6.11,1.85,9.53,1.85c3.48,0,6.67-0.62,9.58-1.85
			c2.91-1.23,5.44-2.94,7.58-5.12c2.15-2.18,3.82-4.77,5.02-7.77c1.2-3,1.8-6.27,1.8-9.81c0-3.54-0.6-6.79-1.8-9.77
			C382.79,33.83,381.12,31.25,378.97,29.07z M373.66,52.92c-0.7,1.83-1.64,3.37-2.84,4.6c-1.2,1.23-2.58,2.17-4.12,2.8
			c-1.55,0.63-3.18,0.95-4.88,0.95s-3.33-0.32-4.88-0.95c-1.55-0.63-2.91-1.56-4.08-2.8c-1.17-1.23-2.12-2.76-2.84-4.6
			c-0.73-1.83-1.09-3.95-1.09-6.35c0-2.4,0.36-4.5,1.09-6.3c0.73-1.8,1.67-3.32,2.84-4.55c1.17-1.23,2.53-2.15,4.08-2.75
			c1.55-0.6,3.18-0.9,4.88-0.9s3.33,0.3,4.88,0.9c1.55,0.6,2.92,1.52,4.12,2.75c1.2,1.23,2.15,2.75,2.84,4.55
			c0.69,1.8,1.04,3.9,1.04,6.3C374.7,48.97,374.36,51.08,373.66,52.92z M179.07,61.26V1.06h-10.71v27.87
			c-0.38-0.76-0.92-1.52-1.61-2.28c-0.7-0.76-1.6-1.47-2.7-2.13c-1.11-0.66-2.42-1.2-3.93-1.61c-1.52-0.41-3.29-0.62-5.31-0.62
			c-3.22,0-6.2,0.63-8.91,1.9c-2.72,1.27-5.04,3-6.97,5.21c-1.93,2.21-3.43,4.79-4.5,7.73c-1.08,2.94-1.61,6.05-1.61,9.34
			c0,3.48,0.54,6.7,1.61,9.67c1.07,2.97,2.57,5.55,4.5,7.73c1.93,2.18,4.25,3.89,6.97,5.12c2.72,1.23,5.75,1.85,9.1,1.85
			c3.29,0,6.1-0.7,8.44-2.09c2.34-1.39,4.04-3.06,5.12-5.02c0,0.95,0.05,2.05,0.14,3.32c0.09,1.27,0.2,2.15,0.33,2.65h10.52
			c-0.06-0.38-0.16-1.36-0.28-2.94C179.13,65.18,179.07,63.35,179.07,61.26z M167.55,52.4c-0.6,1.8-1.44,3.35-2.51,4.65
			c-1.08,1.3-2.37,2.31-3.89,3.03c-1.52,0.73-3.16,1.09-4.93,1.09c-3.79,0-6.81-1.34-9.05-4.03c-2.24-2.69-3.37-6.24-3.37-10.67
			c0-4.42,1.19-7.93,3.56-10.52c2.37-2.59,5.36-3.89,8.96-3.89c3.6,0,6.53,1.28,8.77,3.84c2.24,2.56,3.37,6.05,3.37,10.48
			C168.45,48.59,168.15,50.59,167.55,52.4z M441.01,37.04c-0.95-2.94-2.32-5.48-4.12-7.63c-1.8-2.15-4.03-3.84-6.68-5.07
			s-5.69-1.85-9.1-1.85c-3.6,0-6.67,0.71-9.2,2.13c-2.53,1.42-4.36,3.14-5.5,5.17v-6.26h-10.62v64.18h10.9V64.48
			c1.2,1.77,3,3.27,5.4,4.5c2.4,1.23,5.28,1.85,8.63,1.85c3.29,0,6.27-0.62,8.96-1.85c2.69-1.23,4.98-2.94,6.87-5.12
			c1.9-2.18,3.35-4.74,4.36-7.68c1.01-2.94,1.52-6.15,1.52-9.62C442.43,43.15,441.96,39.98,441.01,37.04z M427.97,57.14
			c-2.31,2.62-5.29,3.93-8.96,3.93c-3.6,0-6.57-1.31-8.91-3.93c-2.34-2.62-3.51-6.15-3.51-10.57c0-2.15,0.32-4.11,0.95-5.88
			c0.63-1.77,1.48-3.27,2.56-4.5c1.07-1.23,2.37-2.2,3.89-2.89c1.52-0.69,3.19-1.04,5.02-1.04c3.73,0,6.73,1.3,9.01,3.89
			c2.28,2.59,3.41,6.07,3.41,10.43C431.44,50.99,430.28,54.51,427.97,57.14z"/>
	</g>
</g>
</svg>
